<svg id="Capa_1" enable-background="new 0 0 512 512" height="512" viewBox="0 0 512 512" width="512" xmlns="http://www.w3.org/2000/svg"><g><g><path d="m111.28 474.338h1.469v-141.165h-27.124c-15.608 0-28.261 12.653-28.261 28.261v58.989c0 29.776 24.139 53.915 53.916 53.915z" fill="#fef2a8"/><path d="m416.647 474.338h-1.469v-141.165h27.124c15.608 0 28.261 12.653 28.261 28.261v58.989c0 29.776-24.139 53.915-53.916 53.915z" fill="#fef2a8"/><path d="m339.545 103.069h-151.163c-49.225 0-89.129 39.904-89.129 89.129v264.558c0 24.926 20.206 45.132 45.132 45.132h239.158c24.926 0 45.132-20.206 45.132-45.132v-264.558c0-49.225-39.905-89.129-89.13-89.129z" fill="#ffa585"/><path d="m339.545 103.069h-63.82c39.172 0 70.927 31.755 70.927 70.927v225.166c0 19.835-16.08 35.915-35.915 35.915h-178.759c-14.56 0-27.088-8.67-32.726-21.124v42.802c0 24.926 20.206 45.132 45.132 45.132h239.158c24.926 0 45.132-20.206 45.132-45.132v-264.557c.001-49.225-39.904-89.129-89.129-89.129z" fill="#ef7c85"/><path d="m201.27 196.026c9.681 0 17.73-7.445 18.506-17.096 5.636-70.092 23.285-121.243 44.188-121.243s38.552 51.151 44.188 121.243c.776 9.65 8.825 17.096 18.506 17.096h10.77c10.671 0 19.101-8.971 18.543-19.628-4.886-93.453-44.215-166.286-92.008-166.286s-87.122 72.833-92.008 166.286c-.557 10.656 7.872 19.628 18.543 19.628z" fill="#fef2a8"/><path d="m355.127 464.737h-182.327c-19.915 0-36.06-16.145-36.06-36.06v-69.047c0-19.915 16.145-36.06 36.06-36.06h182.327c19.915 0 36.06 16.145 36.06 36.06v69.046c0 19.916-16.144 36.061-36.06 36.061z" fill="#ffc7b6"/><g fill="#fef2a8"><path d="m199.691 436.918c-10.657 0-19.296-8.639-19.296-19.296v-53.472c0-4.145 3.36-7.505 7.505-7.505h23.582c4.145 0 7.505 3.36 7.505 7.505v53.471c.001 10.657-8.639 19.297-19.296 19.297z"/><path d="m327.356 436.918c-10.657 0-19.296-8.639-19.296-19.296v-53.472c0-4.145 3.36-7.505 7.505-7.505h23.583c4.145 0 7.505 3.36 7.505 7.505v53.471c-.001 10.657-8.64 19.297-19.297 19.297z"/></g></g><g><g fill="#440a29"><path d="m442.302 323.061h-3.516v-130.863c0-50.561-38.007-92.406-86.95-98.479-4.649-14.774-10.323-28.374-16.916-40.377-18.892-34.398-44.092-53.342-70.956-53.342s-52.064 18.944-70.957 53.342c-6.594 12.006-12.269 25.607-16.918 40.384-48.941 6.074-86.948 47.913-86.948 98.472v130.863h-3.515c-21.159 0-38.373 17.214-38.373 38.373v58.989c0 29.858 20.555 54.98 48.25 62.029 9.263 17.551 27.693 29.548 48.882 29.548h239.158c21.186 0 39.615-11.994 48.88-29.543 27.698-7.047 48.253-32.174 48.253-62.034v-58.989c-.001-21.159-17.215-38.373-38.374-38.373zm-374.826 97.362v-58.989c0-10.007 8.142-18.149 18.149-18.149h3.515v113.471c0 .489.024.972.037 1.458-12.97-7.611-21.701-21.696-21.701-37.791zm313.599-60.793v5.941c-5.15 5.533-15.01 10.474-28.356 14.482v-15.903c0-7.484-6.088-13.573-13.572-13.573h-23.582c-7.484 0-13.572 6.089-13.572 13.573v24.911c-11.915 1.073-24.686 1.653-38.029 1.653-13.675 0-26.741-.613-38.909-1.738v-24.826c0-7.484-6.088-13.573-13.572-13.573h-23.583c-7.484 0-13.573 6.089-13.573 13.573v15.64c-12.903-3.96-22.441-8.808-27.476-14.221v-5.939c0-14.308 11.64-25.948 25.948-25.948h182.327c14.309 0 25.949 11.641 25.949 25.948zm-40.49 4.52v53.471c0 7.295-5.934 13.229-13.229 13.229s-13.229-5.935-13.229-13.229v-53.471c0-.793.645-1.438 1.438-1.438h23.582c.793 0 1.438.645 1.438 1.438zm-127.664 0v53.471c0 7.295-5.934 13.229-13.229 13.229h-.001c-7.295 0-13.229-5.935-13.229-13.229v-53.471c0-.793.645-1.438 1.438-1.438h23.582c.794 0 1.439.645 1.439 1.438zm-66.069 16.862c6.944 4.383 16.109 8.198 27.476 11.423v25.186c0 13.986 11.378 25.364 25.364 25.364 13.985 0 25.363-11.378 25.363-25.364v-16.459c12.379 1.107 25.464 1.687 38.909 1.687 13.125 0 25.912-.551 38.029-1.607v16.379c0 13.986 11.378 25.364 25.363 25.364s25.363-11.378 25.363-25.364v-24.938c.115-.032.234-.062.349-.094 11.616-3.257 20.954-7.125 28.007-11.577v47.665c0 14.308-11.64 25.948-25.948 25.948h-182.327c-14.308 0-25.948-11.64-25.948-25.948zm227.805-63.207c-5.936-2.783-12.552-4.347-19.529-4.347h-182.328c-6.977 0-13.594 1.564-19.529 4.347v-115.806c0-11.097 3.244-21.438 8.819-30.11-.083 1.324-.162 2.651-.231 3.981-.411 7.863 2.455 15.642 7.865 21.342 5.463 5.756 12.841 8.926 20.776 8.926h10.77c14.839 0 27.396-11.595 28.586-26.397.972-12.092 2.258-23.12 3.767-33.127h60.682c1.509 10.008 2.795 21.035 3.767 33.128 1.19 14.802 13.747 26.397 28.586 26.397h10.77c7.935 0 15.314-3.17 20.776-8.926 5.41-5.7 8.276-13.479 7.865-21.342-.069-1.314-.146-2.625-.229-3.934 5.562 8.665 8.816 18.98 8.816 30.063v115.805zm-134.335-204.624h47.284c1.658 6.381 3.234 13.469 4.674 21.298h-56.632c1.439-7.829 3.016-14.917 4.674-21.298zm6.327-20.224c6.507-17.173 13.193-25.158 17.314-25.158s10.808 7.985 17.314 25.158zm-35.916-29.879c15.179-27.635 34.083-42.854 53.231-42.854s38.052 15.219 53.231 42.854c16.197 29.49 26.382 69.922 28.678 113.848.125 2.384-.706 4.644-2.338 6.364-1.606 1.692-3.775 2.624-6.107 2.624h-10.77c-4.374 0-8.076-3.424-8.427-7.794-2.462-30.625-13.653-130.545-54.267-130.545s-51.805 99.92-54.267 130.544c-.351 4.371-4.053 7.794-8.427 7.794h-10.77c-2.332 0-4.501-.932-6.107-2.624-1.632-1.72-2.463-3.98-2.338-6.364 2.296-43.926 12.481-84.358 28.678-113.847zm207.83 393.678c0 19.31-15.71 35.02-35.02 35.02h-239.158c-19.31 0-35.02-15.71-35.02-35.02v-264.558c0-37.323 26.017-68.671 60.864-76.897-2.669 11.509-4.767 23.536-6.252 35.923-13.989 12.384-22.839 30.553-22.839 50.775v124.073c-8.923 8.424-14.508 20.347-14.508 33.558v69.046c0 25.459 20.713 46.172 46.172 46.172h182.327c25.459 0 46.172-20.713 46.172-46.172v-69.046c0-13.21-5.585-25.134-14.508-33.558v-124.073c0-20.221-8.851-38.387-22.839-50.772-1.485-12.384-3.582-24.409-6.25-35.916 34.844 8.227 60.861 39.565 60.861 76.887v264.558zm41.888-36.333c0 16.097-8.73 30.189-21.702 37.801.013-.489.037-.975.037-1.468v-113.471h3.516c10.007 0 18.149 8.141 18.149 18.149z"/><path d="m346.652 239.425c-3.351 0-6.067 2.717-6.067 6.067v12.235c0 3.351 2.717 6.067 6.067 6.067 3.351 0 6.067-2.717 6.067-6.067v-12.235c0-3.35-2.716-6.067-6.067-6.067z"/><path d="m315.282 271.377c-3.351 0-6.067 2.717-6.067 6.067v12.235c0 3.351 2.717 6.067 6.067 6.067 3.351 0 6.067-2.717 6.067-6.067v-12.235c0-3.35-2.716-6.067-6.067-6.067z"/><path d="m311.304 234.669v-12.235c0-3.351-2.717-6.067-6.067-6.067-3.351 0-6.067 2.717-6.067 6.067v12.235c0 3.351 2.717 6.067 6.067 6.067 3.351 0 6.067-2.716 6.067-6.067z"/></g><path d="m180.395 299.269c-5.585 0-10.112-4.527-10.112-10.112v-23.425c0-5.585 4.527-10.112 10.112-10.112s10.112 4.527 10.112 10.112v23.425c0 5.584-4.527 10.112-10.112 10.112z" fill="#fff"/><path d="m180.395 241.319c-5.585 0-10.112-4.527-10.112-10.112v-5.312c0-5.585 4.527-10.112 10.112-10.112s10.112 4.527 10.112 10.112v5.312c0 5.585-4.527 10.112-10.112 10.112z" fill="#fff"/></g><g><path d="m46.15 56.633 8.589 24.151c.368 1.034 1.096 1.854 2.014 2.267l21.457 9.667c3.031 1.366 3.031 6.196 0 7.561l-21.457 9.667c-.919.414-1.647 1.233-2.014 2.267l-8.589 24.151c-1.213 3.412-5.505 3.412-6.718 0l-8.589-24.151c-.368-1.034-1.096-1.853-2.014-2.267l-21.458-9.666c-3.032-1.366-3.032-6.196 0-7.561l21.457-9.667c.919-.414 1.647-1.233 2.014-2.267l8.589-24.151c1.214-3.413 5.505-3.413 6.719-.001z" fill="#ffc7b6"/><path d="m155.495 22.02c0 10.358-8.397 18.754-18.754 18.754-10.358 0-18.755-8.396-18.755-18.754s8.397-18.755 18.755-18.755c10.357.001 18.754 8.397 18.754 18.755z" fill="#ffa585"/><path d="m428.675 54.074c0 4.386-3.556 7.942-7.942 7.942-4.387 0-7.942-3.556-7.942-7.942s3.556-7.942 7.942-7.942 7.942 3.555 7.942 7.942z" fill="#ffa585"/><path d="m481.434 112.207 6.371 17.915c.273.767.813 1.375 1.494 1.682l15.917 7.171c2.249 1.013 2.249 4.596 0 5.609l-15.917 7.171c-.682.307-1.221.915-1.494 1.682l-6.371 17.915c-.9 2.531-4.083 2.531-4.983 0l-6.371-17.915c-.273-.767-.813-1.375-1.494-1.682l-15.917-7.171c-2.249-1.013-2.249-4.596 0-5.609l15.917-7.171c.681-.307 1.221-.915 1.494-1.682l6.371-17.915c.9-2.531 4.083-2.531 4.983 0z" fill="#ffc7b6"/></g></g></svg>