<svg id="Capa_1" enable-background="new 0 0 512 512" height="512" viewBox="0 0 512 512" width="512" xmlns="http://www.w3.org/2000/svg"><g><g><path d="m319.321 68.66h3.995c8.03 0 14.539-6.509 14.539-14.539v-27.736c0-8.03-6.509-14.539-14.539-14.539h-3.995c-8.03 0-14.539 6.509-14.539 14.539v27.736c0 8.03 6.51 14.539 14.539 14.539z" fill="#8bb6ef"/><path d="m321.319 437.02c16.204 0 29.34-13.136 29.34-29.34v-330.997c0-16.204-13.136-29.34-29.34-29.34-16.204 0-29.34 13.136-29.34 29.34v330.997c0 16.204 13.136 29.34 29.34 29.34z" fill="#8bb6ef"/><path d="m256.148 75.631-.373 366.727c-.014 14.553-10.842 26.343-24.185 26.332l-18.505-.014c-13.343-.01-24.148-11.816-24.134-26.37l.373-366.727z" fill="#ffe266"/><path d="m201.803 41.218-14.623 33.469s16.538 16.36 35.525 16.763 31.3-16.711 31.3-16.711l-12.112-33.859c-18.896 16.475-32.154 3.074-40.09.338z" fill="#fef2a8"/><path d="m211.331 19.411-12.214 22.799 28.776 6.182c5.691-2.918 11.316-5.984 16.901-9.137l-10.574-19.827c-5.102-9.566-17.768-9.576-22.889-.017z" fill="#a183e2"/><path d="m188.984 408.105-.033 34.202c-.014 14.553 10.791 26.359 24.133 26.369l18.505.014c13.343.01 24.171-11.779 24.185-26.332l.034-34.454z" fill="#f7c4db"/><path d="m253.94 374.541 1.869 33.362-66.825.202.033-33.64z" fill="#b2e7f1"/><path d="m386.237 242.227h-237.528v-43.716c0-13.032 10.564-23.596 23.596-23.596h190.335c13.032 0 23.596 10.564 23.596 23.596v43.716z" fill="#fff"/><path d="m390.04 246.99h-47.479c8.248 0 14.935 6.687 14.935 14.935v149.087c0 17.427-14.128 31.555-31.555 31.555h-168.333c-17.427 0-31.555-14.128-31.555-31.555v51.143c0 21.998 17.833 39.831 39.831 39.831h203.178c21.998 0 39.831-17.833 39.831-39.831v-196.312c0-10.412-8.441-18.853-18.853-18.853z" fill="#ffbffc"/><path d="m255.77 442.567h-66.813c.115 14.432 10.865 26.098 24.128 26.108l18.505.015c13.278.01 24.062-11.667 24.18-26.123z" fill="#e893db"/></g><path d="m396.25 237.656v-35.691c0-18.548-15.466-33.956-35.578-36.645v-88.637c0-11.477-4.94-21.82-12.804-29.02v-21.278c0-13.539-11.014-24.552-24.552-24.552h-3.995c-13.538 0-24.552 11.014-24.552 24.552v21.278c-7.863 7.2-12.804 17.543-12.804 29.02v88.219h-15.906l.097-98.946c.005-5.178-1.262-10.295-3.665-14.798l-21.229-39.804c-3.731-6.996-10.807-11.347-18.466-11.354h-.019c-7.653 0-14.73 4.337-18.473 11.323l-21.308 39.771c-2.41 4.499-3.687 9.613-3.692 14.79l-.097 99.048c-22.458.63-40.512 16.994-40.512 37.033v35.691c-12.941 2.85-22.657 14.402-22.657 28.187v196.314c0 27.484 22.36 49.844 49.845 49.844h203.178c27.484 0 49.844-22.36 49.844-49.844v-196.314c.001-13.785-9.714-25.337-22.655-28.187zm-81.454-211.271c0-2.496 2.03-4.526 4.526-4.526h3.995c2.496 0 4.526 2.03 4.526 4.526v11.495c-2.123-.356-4.301-.55-6.523-.55-2.223 0-4.4.194-6.523.55v-11.495zm-12.804 50.298c0-10.657 8.67-19.328 19.327-19.328s19.326 8.671 19.326 19.328v88.219h-38.653zm-102.757 88.219.075-76.384c7.287 5.377 15.71 7.564 23.311 7.564 1.324 0 2.624-.065 3.887-.193 7.487-.751 14.2-3.498 19.6-7.69l-.075 76.703zm.097-98.998c.002-1.895.458-3.746 1.318-5.353l6.095-11.377c4.706 3.396 9.691 5.26 14.902 5.545.465.025.93.038 1.397.038 5.243 0 10.63-1.615 16.11-4.799l5.666 10.624c.858 1.607 1.31 3.458 1.308 5.354l-.003 2.98c-3.496 9.226-12.347 14.166-20.818 15.016-8.857.896-19.383-2.337-25.981-12.973zm23.445-45.878c.36 0 .665.472.815.752l9.914 18.589c-4.022 2.417-7.77 3.551-11.201 3.353-3.336-.183-6.579-1.589-9.818-4.265l9.47-17.676c.122-.225.445-.753.82-.753zm-42.229 164.903h173.851c12.035 0 21.825 7.643 21.825 17.036v9.769h-89.577c-3.318 0-6.008 2.69-6.008 6.008s2.69 6.008 6.008 6.008h89.577v13.227h-217.5v-22.397h75.282c3.318 0 6.008-2.69 6.008-6.008s-2.69-6.008-6.008-6.008h-75.282v-.599c-.001-9.393 9.789-17.036 21.824-17.036zm140.771 242.078c-10.657 0-19.326-8.671-19.326-19.328v-25.358h38.653v25.358c0 10.657-8.671 19.328-19.327 19.328zm19.327-56.702h-38.653v-113.302h38.653zm-94.845 31.836-46.797-.036.021-21.624 46.797.036zm-46.809 11.98 46.797.036-.027 28.192c-.009 9.006-6.358 16.328-14.155 16.328h-.009l-18.506-.015c-3.612-.003-7.056-1.593-9.697-4.478-2.862-3.127-4.435-7.342-4.431-11.868zm46.842-45.621-46.797-.037.109-111.461h46.798zm153.045 93.656c0 16.441-13.376 29.817-29.817 29.817h-203.178c-16.442 0-29.818-13.376-29.818-29.817v-196.313c0-4.875 3.965-8.84 8.839-8.84h34.213l-.181 185.294c-.01 9.551 3.43 18.574 9.684 25.408 6.476 7.077 15.161 10.978 24.455 10.984l18.506.015h.024c18.83 0 34.162-16.295 34.182-36.335l.181-185.365h15.996v150.676c0 18.24 12.475 33.618 29.34 38.059v22.952c0 5.53 4.483 10.013 10.013 10.013s10.013-4.483 10.013-10.013v-22.952c16.865-4.441 29.34-19.819 29.34-38.059v-150.677h29.368c4.874 0 8.839 3.965 8.839 8.84v196.313z" fill="#440a29"/><g><ellipse cx="482.297" cy="239.352" fill="#ffe266" rx="18.572" ry="18.572" transform="matrix(.515 -.857 .857 .515 28.681 529.408)"/><path d="m109.221 139.717c0 4.344-3.521 7.865-7.865 7.865s-7.865-3.521-7.865-7.865 3.521-7.865 7.865-7.865c4.343.001 7.865 3.522 7.865 7.865z" fill="#ffe266"/><g fill="#fef2a8"><path d="m41.287 172.763 6.309 17.74c.27.759.805 1.361 1.48 1.665l15.761 7.101c2.227 1.003 2.227 4.551 0 5.554l-15.761 7.101c-.675.304-1.21.906-1.48 1.665l-6.309 17.74c-.891 2.506-4.043 2.506-4.935 0l-6.309-17.74c-.27-.76-.805-1.361-1.48-1.665l-15.761-7.101c-2.227-1.003-2.227-4.551 0-5.554l15.761-7.101c.675-.304 1.21-.906 1.48-1.665l6.309-17.74c.891-2.506 4.043-2.506 4.935 0z"/><path d="m443.22 102.569 6.309 17.74c.27.759.805 1.361 1.48 1.666l15.761 7.101c2.227 1.003 2.227 4.551 0 5.554l-15.761 7.101c-.675.304-1.21.906-1.48 1.665l-6.309 17.74c-.891 2.506-4.043 2.506-4.935 0l-6.309-17.74c-.27-.76-.805-1.361-1.48-1.665l-15.761-7.101c-2.227-1.003-2.227-4.551 0-5.554l15.761-7.101c.675-.304 1.21-.906 1.48-1.666l6.309-17.74c.891-2.506 4.043-2.506 4.935 0z"/><path d="m104.746 3.586 8.669 23.915c.371 1.024 1.106 1.835 2.033 2.245l21.658 9.573c3.06 1.352 3.06 6.135 0 7.488l-21.658 9.573c-.927.41-1.662 1.221-2.033 2.245l-8.669 23.915c-1.225 3.379-5.556 3.379-6.781 0l-8.669-23.915c-.371-1.024-1.106-1.835-2.033-2.245l-21.657-9.573c-3.06-1.352-3.06-6.135 0-7.488l21.657-9.573c.927-.41 1.662-1.221 2.033-2.245l8.669-23.915c1.225-3.378 5.557-3.378 6.781 0z"/></g></g></g></svg>