<svg id="Capa_1" enable-background="new 0 0 512 512" height="512" viewBox="0 0 512 512" width="512" xmlns="http://www.w3.org/2000/svg"><g><g><path d="m131.184 122.79h52.253v68.419h-52.253z" fill="#ffe266" transform="matrix(.805 -.594 .594 .805 -62.483 124.039)"/><path d="m325.046 122.79h52.253v68.419h-52.253z" fill="#ffe266" transform="matrix(-.805 -.594 .594 -.805 540.576 491.81)"/><path d="m204.368 114.302c6.611-4.464 7.517-13.875 1.846-19.485-26.601-26.315-68.91-31.113-101.103-9.372-32.202 21.746-43.555 62.8-29.066 97.311 3.083 7.344 12.154 9.996 18.755 5.538z" fill="#f7c4db"/><path d="m303.606 116.461c-6.72-4.298-7.862-13.683-2.334-19.433 25.934-26.973 68.11-32.828 100.837-11.9 32.736 20.933 45.113 61.69 31.492 96.553-2.898 7.419-11.9 10.297-18.61 6.006z" fill="#f7c4db"/><g fill="#ffe266"><ellipse cx="229.496" cy="92.044" rx="19.542" ry="19.542" transform="matrix(.228 -.974 .974 .228 87.583 294.532)"/><path d="m155.86 505.982c-13.644 0-21.574-15.429-13.632-26.523l19.685-28.709c3.416-4.982 10.235-6.229 15.193-2.779l9.655 6.718c4.911 3.417 6.143 10.157 2.759 15.091l-20.027 29.197c-3.149 4.396-8.225 7.005-13.633 7.005z"/><path d="m353.037 505.982c13.644 0 21.574-15.429 13.632-26.523l-19.685-28.709c-3.416-4.982-10.235-6.229-15.193-2.779l-9.655 6.718c-4.911 3.417-6.143 10.157-2.759 15.091l20.027 29.197c3.149 4.396 8.225 7.005 13.633 7.005z"/></g><circle cx="254.449" cy="313.838" fill="#f7c4db" r="165.568"/><circle cx="254.449" cy="313.838" fill="#fef2a8" r="123.366"/><path d="m202.364 381.611 52.292-67.624" fill="#fef2a8"/><path d="m211.173 283.378 43.276 30.46" fill="#fef2a8"/><path d="m254.449 148.27c-6.894 0-13.688.429-20.361 1.247 61.913 8.67 109.562 61.835 109.562 126.138 0 70.353-57.032 127.385-127.385 127.385-64.303 0-117.468-47.648-126.138-109.562-.818 6.673-1.247 13.466-1.247 20.361 0 91.441 74.127 165.568 165.568 165.568s165.568-74.128 165.568-165.568c.001-91.442-74.127-165.569-165.567-165.569z" fill="#e893db"/><path d="m328.316 215.023c9.778 18.029 15.334 38.68 15.334 60.632 0 70.353-57.032 127.385-127.385 127.385-21.952 0-42.603-5.556-60.632-15.334 22.5 30.05 58.386 49.499 98.815 49.499 68.133 0 123.366-55.233 123.366-123.366.001-40.43-19.447-76.316-49.498-98.816z" fill="#eeb6a8"/></g><g><g fill="#440a29"><path d="m407.513 76.677c-36.094-23.08-83.816-17.445-113.471 13.399-4.717 4.907-6.962 11.602-6.16 18.37.805 6.785 4.567 12.786 10.32 16.465l21.547 13.779-7.013 9.507c-16.236-5.73-33.558-9.135-51.567-9.816l-10.723-25.488c5.325-5.35 8.621-12.721 8.621-20.849 0-16.306-13.266-29.572-29.572-29.572-11.613 0-21.679 6.731-26.514 16.495-30.194-21.977-71.76-23.257-103.484-1.835-35.518 23.985-49.27 70.04-32.701 109.506 2.629 6.262 7.878 10.969 14.4 12.913 6.502 1.945 13.543.894 19.217-2.944l27.49-18.564 6.043 8.192c-33.904 32.035-55.096 77.389-55.096 127.603 0 58.255 28.522 109.965 72.327 141.926l-13.88 20.244c-4.958 6.968-5.611 16.013-1.699 23.623 3.92 7.629 11.684 12.369 20.262 12.369 7.332 0 14.258-3.559 18.526-9.521.023-.033.047-.066.069-.099l16.92-24.667c19.586 7.564 40.852 11.724 63.074 11.724s43.488-4.159 63.074-11.723l16.92 24.667c.023.033.046.066.069.098 4.267 5.962 11.193 9.522 18.525 9.522 8.578 0 16.342-4.74 20.263-12.368 3.911-7.61 3.259-16.655-1.7-23.623l-13.88-20.243c43.805-31.962 72.327-83.672 72.327-141.927 0-50.335-21.295-95.784-55.341-127.832l6.102-8.272 28.78 18.403c5.769 3.694 12.825 4.57 19.285 2.462 6.472-2.106 11.601-6.943 14.072-13.268 15.576-39.871.675-85.567-35.432-108.656zm-211.68 71.636-7.949-10.775 22.097-14.922-.001.001c1.969-1.33 3.684-2.94 5.118-4.754 4.264 2.387 9.173 3.755 14.398 3.755.945 0 1.878-.049 2.8-.136l7.317 17.392c-15.224 1.278-29.9 4.509-43.78 9.439zm33.663-65.78c5.244 0 9.511 4.267 9.511 9.511s-4.267 9.511-9.511 9.511-9.511-4.267-9.511-9.511 4.267-9.511 9.511-9.511zm-140.31 97.449c-.908.615-1.805.479-2.259.344-.534-.159-1.25-.54-1.633-1.453-12.877-30.672-2.182-66.469 25.431-85.116 11.897-8.034 25.576-11.966 39.184-11.966 17.963 0 35.801 6.85 49.252 20.157.716.708.804 1.525.752 2.084-.044.469-.252 1.346-1.157 1.957zm55.357-13.176 26.701-18.032 5.591 7.58c-9.711 4.806-18.923 10.474-27.52 16.921zm20.024 328.71c-2.016 2.786-5.266 4.448-8.708 4.448-4.107 0-7.681-2.181-9.558-5.834-1.878-3.653-1.571-7.828.82-11.168.024-.033.047-.067.07-.1l13.944-20.338c6.077 3.828 12.404 7.292 18.951 10.365zm197.138-12.654c.023.033.047.067.07.1 2.391 3.34 2.698 7.514.82 11.168-1.877 3.653-5.451 5.834-9.558 5.834-3.441 0-6.691-1.661-8.707-4.447l-15.521-22.627c6.547-3.073 12.874-6.537 18.951-10.365zm48.282-169.024c0 85.764-69.774 155.538-155.538 155.538s-155.538-69.774-155.538-155.538 69.774-155.538 155.538-155.538 155.538 69.774 155.538 155.538zm-50.671-140.762c-8.611-6.432-17.834-12.085-27.556-16.872l4.929-6.682 27.181 17.381zm64.943 4.955c-.36.922-1.067 1.321-1.596 1.493-.449.147-1.342.305-2.268-.287l-111.386-71.227c-.92-.589-1.151-1.46-1.206-1.927-.066-.559.001-1.377.699-2.103 13.544-14.086 31.938-21.405 50.5-21.405 13.025 0 26.132 3.604 37.704 11.003 28.07 17.95 39.658 53.468 27.553 84.453z"/><path d="m254.449 184.454c-71.343 0-129.384 58.042-129.384 129.384 0 71.343 58.042 129.384 129.384 129.384 71.343 0 129.384-58.042 129.384-129.384 0-71.343-58.042-129.384-129.384-129.384zm0 246.732c-64.706 0-117.348-52.642-117.348-117.348s52.642-117.348 117.348-117.348 117.348 52.642 117.348 117.348-52.642 117.348-117.348 117.348z"/><path d="m260.792 306.052c-.113-.087-.233-.16-.348-.242-.076-.057-.144-.119-.222-.174l-43.275-30.46c-4.53-3.189-10.788-2.101-13.975 2.429-3.189 4.53-2.101 10.787 2.429 13.975l34.905 24.568-45.876 59.326c-3.389 4.382-2.583 10.682 1.799 14.07 1.826 1.413 3.986 2.096 6.129 2.096 2.998 0 5.965-1.34 7.942-3.895l52.293-67.624c3.387-4.381 2.582-10.681-1.801-14.069z"/><path d="m254.449 246.629c3.324 0 6.018-2.695 6.018-6.018v-13.826c0-3.324-2.695-6.018-6.018-6.018-3.324 0-6.018 2.695-6.018 6.018v13.826c-.001 3.324 2.694 6.018 6.018 6.018z"/><path d="m323.004 314.004c0 3.324 2.695 6.018 6.018 6.018h13.826c3.324 0 6.018-2.695 6.018-6.018 0-3.324-2.695-6.018-6.018-6.018h-13.826c-3.323 0-6.018 2.694-6.018 6.018z"/><path d="m253.182 380.385c-3.324 0-6.018 2.695-6.018 6.018v13.826c0 3.324 2.695 6.018 6.018 6.018 3.324 0 6.018-2.695 6.018-6.018v-13.826c0-3.323-2.694-6.018-6.018-6.018z"/><path d="m178.609 306.992h-13.826c-3.324 0-6.018 2.695-6.018 6.018s2.695 6.018 6.018 6.018h13.826c3.323 0 6.018-2.695 6.018-6.018s-2.695-6.018-6.018-6.018z"/></g><path d="m103.322 146.991c-.546 0-1.099-.045-1.655-.137-5.465-.907-9.159-6.073-8.251-11.538 3.971-23.919 19.459-29.54 21.212-30.102 0 0 9.648-4.343 13.456 4.947s-7.181 14.123-6.924 14.012c-.244.105-6.009 2.714-7.955 14.43-.816 4.907-5.066 8.388-9.883 8.388z" fill="#fff"/></g><g><path d="m45.438 2.538 8.684 23.956c.372 1.026 1.108 1.838 2.037 2.249l21.694 9.589c3.065 1.355 3.065 6.146 0 7.5l-21.694 9.589c-.929.41-1.665 1.223-2.037 2.249l-8.684 23.956c-1.227 3.385-5.566 3.385-6.792 0l-8.684-23.956c-.372-1.026-1.108-1.839-2.037-2.249l-21.695-9.588c-3.065-1.355-3.065-6.146 0-7.5l21.694-9.589c.929-.411 1.665-1.223 2.037-2.249l8.684-23.956c1.227-3.385 5.566-3.385 6.793-.001z" fill="#f7c4db"/><ellipse cx="292.037" cy="25.668" fill="#ef8bbd" rx="18.603" ry="18.603" transform="matrix(.099 -.995 .995 .099 237.718 313.755)"/><ellipse cx="460.478" cy="65.431" fill="#ef8bbd" rx="7.878" ry="7.878" transform="matrix(.16 -.987 .987 .16 322.131 509.482)"/><path d="m482.806 204.365 6.32 17.77c.27.761.806 1.364 1.482 1.668l15.788 7.113c2.23 1.005 2.23 4.559 0 5.564l-15.788 7.113c-.676.305-1.212.907-1.482 1.668l-6.32 17.77c-.893 2.511-4.05 2.511-4.943 0l-6.32-17.77c-.271-.761-.806-1.364-1.482-1.668l-15.788-7.113c-2.23-1.005-2.23-4.559 0-5.564l15.788-7.113c.676-.305 1.212-.908 1.482-1.668l6.32-17.77c.892-2.511 4.05-2.511 4.943 0z" fill="#f7c4db"/></g></g></svg>