<svg id="Capa_1" enable-background="new 0 0 512 512" height="512" viewBox="0 0 512 512" width="512" xmlns="http://www.w3.org/2000/svg"><g><g><path d="m375.018 125.905h-80.897c-19.904 0-36.039 16.135-36.039 36.04v108.272h152.976v-108.272c-.001-19.904-16.136-36.04-36.04-36.04z" fill="#78eac4"/><path d="m375.018 125.905h-27.934c13.466 0 24.382 10.916 24.382 24.381v41.63c0 12.758-10.343 23.101-23.101 23.101h-90.283v55.199h152.976v-108.271c-.001-19.904-16.136-36.04-36.04-36.04z" fill="#71afc4"/><path d="m189.67 311.358h221.967v117.564h-221.967z" fill="#b07676"/><path d="m442.289 501.967h-7.105c-13.004 0-23.546-10.542-23.546-23.546v-195.501h54.198v195.501c0 13.004-10.543 23.546-23.547 23.546z" fill="#d49c8d"/><path d="m167.106 501.967h-97.821c-12.769 0-23.12-10.351-23.12-23.121v-195.926h144.063v195.926c-.001 12.77-10.352 23.121-23.122 23.121z" fill="#d49c8d"/><path d="m146.088 282.92v31.067h10.408v131.758c0 7.701-6.244 13.945-13.945 13.945h-82.442c-7.702 0-13.945-6.244-13.945-13.945v33.102c0 12.769 10.352 23.12 23.12 23.12h97.822c12.769 0 23.121-10.352 23.121-23.12v-195.927z" fill="#c7758d"/><path d="m469.599 311.358h-427.198c-17.663 0-31.982-14.319-31.982-31.982 0-17.663 14.319-31.982 31.982-31.982h427.198c17.663 0 31.982 14.319 31.982 31.982-.001 17.663-14.319 31.982-31.982 31.982z" fill="#d49c8d"/><path d="m176.071 198.061h-95.92c-12.897 0-23.352 10.455-23.352 23.352 0 12.897 10.455 23.352 23.352 23.352h95.92c7.51 0 13.599-6.088 13.599-13.599v-19.506c0-7.51-6.088-13.599-13.599-13.599z" fill="#ffe266"/><path d="m176.071 151.358h-95.92c-12.897 0-23.352 10.455-23.352 23.352 0 12.897 10.455 23.352 23.352 23.352h95.92c7.51 0 13.599-6.089 13.599-13.599v-19.506c0-7.511-6.088-13.599-13.599-13.599z" fill="#ef8bbd"/><path d="m190.274 311.358h221.364v44.287h-221.364z" fill="#a45775"/></g><g><g fill="#440a29"><path d="m511.613 279.376c0-23.167-18.848-42.015-42.015-42.015h-48.508v-75.416c0-25.405-20.667-46.073-46.072-46.073h-80.897c-25.405 0-46.072 20.668-46.072 46.073v75.416h-49.176c.538-1.976.83-4.051.83-6.195v-19.506c0-5.061-1.604-9.75-4.323-13.599 2.719-3.849 4.323-8.538 4.323-13.598v-19.505c0-13.031-10.601-23.632-23.631-23.632h-95.92c-18.408 0-33.384 14.977-33.384 33.385 0 9.083 3.651 17.327 9.556 23.351-5.906 6.026-9.556 14.269-9.556 23.352 0 5.772 1.474 11.207 4.063 15.948h-8.429c-23.167 0-42.015 18.848-42.015 42.015 0 21.036 15.541 38.508 35.744 41.544v157.927c0 18.281 14.873 33.153 33.154 33.153h97.821c18.281 0 33.154-14.872 33.154-33.153v-36.456l201.344-3.272v39.302c0 18.516 15.063 33.579 33.579 33.579h7.105c18.516 0 33.579-15.063 33.579-33.579v-157.5c20.205-3.038 35.746-20.509 35.746-41.546zm-431.461-71.282h95.92c1.966 0 3.565 1.6 3.565 3.566v19.505c0 1.967-1.599 3.566-3.565 3.566h-95.92c-7.344 0-13.318-5.975-13.318-13.318-.001-7.344 5.974-13.319 13.318-13.319zm0-46.703h95.92c1.966 0 3.565 1.6 3.565 3.566v19.505c0 1.966-1.599 3.566-3.565 3.566h-95.92c-7.344 0-13.318-5.975-13.318-13.318-.001-7.345 5.974-13.319 13.318-13.319zm187.963.554c0-14.34 11.666-26.007 26.006-26.007h80.897c14.34 0 26.006 11.667 26.006 26.007v75.416h-132.91v-75.416zm-101.009 329.989h-97.821c-7.217 0-13.088-5.871-13.088-13.087v-157.457h123.997v157.457c0 7.216-5.871 13.087-13.088 13.087zm33.154-69.612v-100.932h201.344v97.659zm242.029 69.612h-7.105c-7.451 0-13.513-6.062-13.513-13.513v-157.031h34.132v157.031c-.001 7.451-6.063 13.513-13.514 13.513zm27.31-190.61h-427.197c-12.103 0-21.949-9.846-21.949-21.948s9.846-21.949 21.949-21.949h427.197c12.103 0 21.949 9.847 21.949 21.949-.001 12.102-9.846 21.948-21.949 21.948z"/><path d="m152.454 387.542c-3.325 0-6.02 2.695-6.02 6.02v12.81c0 3.324 2.695 6.02 6.02 6.02 3.324 0 6.02-2.695 6.02-6.02v-12.81c-.001-3.325-2.696-6.02-6.02-6.02z"/><path d="m104.436 422.017c-3.324 0-6.02 2.695-6.02 6.02v12.81c0 3.324 2.695 6.02 6.02 6.02s6.02-2.695 6.02-6.02v-12.81c-.001-3.325-2.696-6.02-6.02-6.02z"/><path d="m133.985 437.612c-3.324 0-6.02 2.695-6.02 6.02v12.81c0 3.324 2.695 6.02 6.02 6.02s6.02-2.695 6.02-6.02v-12.81c0-3.325-2.696-6.02-6.02-6.02z"/></g><path d="m166.493 289.409c-.035 0-.072 0-.107-.001-18.973-.198-36.809-.198-56.135 0-.034.001-.07.001-.105.001-5.493 0-9.974-4.424-10.03-9.93-.058-5.541 4.387-10.078 9.929-10.135 19.466-.202 37.436-.202 56.55 0 5.541.058 9.986 4.596 9.927 10.137-.056 5.505-4.537 9.928-10.029 9.928z" fill="#fff"/><path d="m74.821 289.409h-8.751c-5.541 0-10.033-4.492-10.033-10.033s4.492-10.033 10.033-10.033h8.751c5.541 0 10.033 4.492 10.033 10.033s-4.493 10.033-10.033 10.033z" fill="#fff"/></g><g><path d="m102.346 47.746c0 10.277-8.331 18.608-18.608 18.608s-18.608-8.331-18.608-18.608 8.331-18.608 18.608-18.608 18.608 8.331 18.608 18.608z" fill="#ffa585"/><circle cx="444.9" cy="95.079" fill="#ffa585" r="7.88"/><g fill="#ffc7b6"><path d="m337.042 1.883 6.321 17.775c.271.761.806 1.364 1.483 1.669l15.792 7.115c2.231 1.005 2.231 4.56 0 5.565l-15.792 7.115c-.676.305-1.212.908-1.483 1.669l-6.321 17.775c-.893 2.511-4.051 2.511-4.945 0l-6.322-17.775c-.27-.761-.806-1.364-1.482-1.669l-15.792-7.115c-2.231-1.005-2.231-4.56 0-5.565l15.792-7.115c.676-.305 1.212-.908 1.482-1.669l6.322-17.775c.893-2.511 4.052-2.511 4.945 0z"/><path d="m221.277 47.644 8.686 23.962c.372 1.026 1.108 1.839 2.037 2.25l21.7 9.592c3.066 1.355 3.066 6.147 0 7.502l-21.7 9.592c-.929.411-1.665 1.224-2.037 2.25l-8.686 23.962c-1.227 3.385-5.567 3.385-6.794 0l-8.686-23.962c-.372-1.026-1.108-1.839-2.037-2.25l-21.7-9.592c-3.066-1.355-3.066-6.147 0-7.502l21.7-9.592c.929-.411 1.665-1.224 2.037-2.25l8.686-23.962c1.227-3.385 5.567-3.385 6.794 0z"/></g></g></g></svg>