<svg id="Capa_1" enable-background="new 0 0 512 512" height="512" viewBox="0 0 512 512" width="512" xmlns="http://www.w3.org/2000/svg"><g><g><path d="m500.929 145.66c0-31.018-25.146-56.164-56.165-56.164-22.115 0-41.235 12.786-50.395 31.363-21.521-10.592-45.68-16.587-71.201-16.634-57.218-.106-107.587 29.217-136.842 73.67l-54.066 71.961 20.225 14.605c7.38 5.329 9.042 15.633 3.712 23.012l-18.563 25.704c-5.33 7.38-15.633 9.042-23.012 3.712l-21.216-15.322-74.236 98.806c-6.983 9.226-5.074 22.381 4.244 29.242l92.82 68.34c7.465 5.496 17.669 5.376 25.003-.293l115.863-80.548c20.121 8.861 42.363 13.79 65.759 13.79 88.322 0 160.271-70.1 163.244-157.699.937-27.609-5.137-53.881-16.576-77.132 18.6-9.153 31.402-28.284 31.402-50.413zm-49.032 21.669c-8.221-10.873-17.924-20.578-28.797-28.813 3.093-8.789 11.463-15.09 21.309-15.09 12.475 0 22.59 10.113 22.59 22.589 0 9.851-6.308 18.224-15.102 21.314z" fill="#ef8bbd"/><path d="m500.907 144.046c-.83-29.587-24.985-53.72-54.572-54.529-11.405-.312-22.062 2.786-31.043 8.337 9.255 6.557 16.065 16.497 18.758 28.088 3.749-1.939 8.107-2.865 12.717-2.396 10.653 1.084 19.205 9.76 20.141 20.427.941 10.721-5.616 20.054-15.012 23.356 1.388 25.568-12.382 46.935-39.447 50.258.548 5.865 10.887 21.373 10.688 27.414-2.445 74.149-61.61 133.487-134.239 133.487-12.31 0-24.231-1.708-35.555-4.904-12.685-3.579-26.306-1.198-37.024 6.472l-76.772 54.939c-6.031 4.799-14.422 4.9-20.56.248l-76.328-57.848c-1.375-1.042-2.546-2.261-3.521-3.597l-19.965 26.574c-6.983 9.226-5.074 22.381 4.244 29.242l92.82 68.34c7.465 5.496 17.669 5.376 25.003-.293l115.863-80.548c20.121 8.861 42.363 13.79 65.759 13.79 88.322 0 160.271-70.1 163.244-157.699.937-27.609-5.137-53.881-16.576-77.132 19.047-9.373 32.016-29.216 31.377-52.026z" fill="#e068bd"/><ellipse cx="322.86" cy="267.564" fill="#f7c4db" rx="99.747" ry="99.747" transform="matrix(.964 -.267 .267 .964 -59.707 95.891)"/><path d="m322.86 167.817c-27.544 0-52.481 11.165-70.532 29.216 13.811-13.812 32.892-22.355 53.967-22.355 42.151 0 76.321 34.17 76.321 76.322s-34.17 76.322-76.321 76.322-76.321-34.17-76.321-76.322c0-21.076 8.543-40.156 22.354-53.967-18.051 18.05-29.215 42.988-29.215 70.532 0 55.089 44.659 99.747 99.747 99.747 55.089 0 99.747-44.658 99.747-99.747.001-55.09-44.658-99.748-99.747-99.748z" fill="#e893db"/></g><g><g fill="#440a29"><path d="m473.02 146.016c0-15.776-12.835-28.61-28.611-28.61-12.119 0-22.965 7.681-26.989 19.112-.868 2.47-.042 5.219 2.045 6.799 10.445 7.911 19.742 17.213 27.629 27.645 1.161 1.536 2.954 2.389 4.804 2.389.667 0 1.341-.111 1.995-.34 11.44-4.02 19.127-14.869 19.127-26.995zm-19.385 13.761c-6.826-8.447-14.528-16.153-22.983-22.994 3.029-4.505 8.159-7.336 13.757-7.336 9.136 0 16.569 7.433 16.569 16.568-.001 5.602-2.834 10.734-7.343 13.762z"/><path d="m322.86 157.781c-60.534 0-109.783 49.249-109.783 109.783s49.249 109.783 109.783 109.783 109.783-49.249 109.783-109.783-49.249-109.783-109.783-109.783zm0 199.495c-49.467 0-89.712-40.244-89.712-89.712s40.245-89.712 89.712-89.712 89.712 40.244 89.712 89.712-40.244 89.712-89.712 89.712z"/><path d="m510.965 145.66c0-36.503-29.697-66.2-66.201-66.2-22.086 0-42.178 10.712-54.433 28.501-21.269-9.101-43.812-13.728-67.145-13.772-.111 0-.215 0-.325 0-58.42 0-112.491 29.11-144.743 77.923l-53.882 71.714c-1.618 2.154-2.303 4.869-1.899 7.533.404 2.665 1.863 5.054 4.047 6.632l20.225 14.606c1.396 1.008 2.316 2.499 2.59 4.199.274 1.699-.13 3.405-1.138 4.801l-18.563 25.704c-2.082 2.88-6.119 3.534-9.001 1.452l-21.215-15.322c-4.434-3.204-10.613-2.267-13.899 2.107l-74.214 98.777c-5.01 6.62-7.113 14.79-5.92 23.006 1.192 8.216 5.53 15.451 12.216 20.374l92.82 68.34c5.406 3.98 11.831 5.965 18.252 5.963 6.576 0 13.149-2.081 18.617-6.229l111.143-77.266c20.526 8.254 42.217 12.435 64.563 12.435 45.268 0 88.102-17.341 120.61-48.827 32.433-31.412 51.136-73.521 52.664-118.567.853-25.119-3.873-50.314-13.713-73.422 17.815-12.25 28.544-32.354 28.544-54.462zm-50.442 54.845c11.02 22.398 16.398 47.42 15.551 72.361-2.818 82.992-70.117 148.003-153.215 148.003-21.454 0-42.218-4.353-61.714-12.939-3.201-1.41-6.902-1.052-9.773.945l-115.862 80.547c-.139.097-.276.197-.41.301-3.769 2.913-9.079 2.975-12.914.151l-92.82-68.34c-2.328-1.714-3.838-4.233-4.253-7.094s.317-5.706 2.083-8.038l68.32-90.932 13.232 9.556c5.743 4.147 12.757 5.815 19.749 4.681 6.993-1.128 13.128-4.912 17.275-10.654l18.563-25.704c4.147-5.742 5.81-12.755 4.682-19.749-1.128-6.993-4.912-13.128-10.654-17.275l-11.934-8.618 47.923-63.784c.125-.167.245-.337.36-.512 28.507-43.317 76.396-69.151 128.153-69.151h.287c23.369.043 45.84 5.292 66.789 15.603 4.971 2.445 10.983.403 13.432-4.566 7.836-15.893 23.698-25.766 41.394-25.766 25.436 0 46.13 20.694 46.13 46.129 0 17.711-9.885 33.578-25.798 41.41-4.975 2.448-7.023 8.462-4.576 13.435z"/><path d="m119.804 417.666-10.199 7.757c-2.647 2.013-3.161 5.791-1.148 8.437 1.185 1.558 2.98 2.377 4.797 2.377 1.271 0 2.551-.4 3.641-1.229l10.199-7.757c2.647-2.013 3.161-5.791 1.147-8.437-2.012-2.648-5.79-3.163-8.437-1.148z"/><path d="m201.444 385.458-10.199 7.757c-2.647 2.013-3.161 5.791-1.147 8.437 1.184 1.558 2.98 2.377 4.797 2.377 1.271 0 2.552-.4 3.641-1.229l10.199-7.757c2.647-2.013 3.161-5.791 1.148-8.437-2.015-2.648-5.792-3.163-8.439-1.148z"/><path d="m180.541 425.26-10.198 7.757c-2.647 2.013-3.161 5.791-1.147 8.438 1.185 1.557 2.98 2.376 4.797 2.376 1.271 0 2.552-.401 3.641-1.229l10.198-7.757c2.647-2.013 3.161-5.791 1.147-8.438-2.013-2.648-5.792-3.161-8.438-1.147z"/></g><path d="m265.677 271.513c-.355 0-.712-.019-1.073-.057-5.512-.586-9.504-5.528-8.919-11.04 1.152-10.85 4.956-21.361 10.997-30.397 3.082-4.607 9.316-5.844 13.921-2.766 4.608 3.081 5.846 9.313 2.766 13.921-4.243 6.346-6.913 13.732-7.724 21.363-.549 5.151-4.903 8.976-9.968 8.976z" fill="#fff"/><path d="m305.768 222.666c-4.283 0-8.25-2.764-9.584-7.07-1.64-5.294 1.323-10.916 6.618-12.555 1.251-.387 2.503-.737 3.722-1.041 5.375-1.334 10.824 1.935 12.162 7.315 1.339 5.379-1.937 10.824-7.315 12.162-1.798.418-3.725 1.247-5.603 1.189z" fill="#fff"/></g><g><path d="m188.836 84.21c0 10.28-8.333 18.613-18.613 18.613s-18.613-8.333-18.613-18.613 8.333-18.613 18.613-18.613 18.613 8.333 18.613 18.613z" fill="#ef8bbd"/><ellipse cx="109.169" cy="179.917" fill="#ef8bbd" rx="7.882" ry="7.882" transform="matrix(.707 -.707 .707 .707 -95.246 129.89)"/><g fill="#f7c4db"><path d="m253.335 1.884 6.323 17.78c.271.761.807 1.364 1.483 1.669l15.796 7.117c2.232 1.006 2.232 4.561 0 5.567l-15.796 7.117c-.676.305-1.212.908-1.483 1.669l-6.323 17.78c-.893 2.512-4.053 2.512-4.946 0l-6.323-17.78c-.271-.761-.807-1.364-1.483-1.669l-15.796-7.117c-2.232-1.006-2.232-4.561 0-5.567l15.796-7.117c.676-.305 1.212-.908 1.483-1.669l6.323-17.78c.893-2.512 4.052-2.512 4.946 0z"/><path d="m76.01 83.497 6.323 17.78c.271.761.807 1.364 1.483 1.669l15.797 7.117c2.231 1.006 2.231 4.561 0 5.567l-15.797 7.117c-.676.305-1.212.908-1.483 1.669l-6.323 17.779c-.893 2.512-4.052 2.512-4.946 0l-6.323-17.779c-.271-.761-.807-1.364-1.483-1.669l-15.796-7.117c-2.232-1.006-2.232-4.561 0-5.567l15.796-7.117c.676-.305 1.212-.908 1.483-1.669l6.323-17.78c.894-2.512 4.053-2.512 4.946 0z"/><path d="m42.563 196.031 8.688 23.969c.372 1.026 1.108 1.839 2.038 2.25l21.706 9.594c3.066 1.355 3.066 6.149 0 7.504l-21.706 9.594c-.929.411-1.666 1.224-2.038 2.25l-8.688 23.968c-1.227 3.386-5.568 3.386-6.796 0l-8.688-23.968c-.372-1.026-1.108-1.839-2.038-2.25l-21.706-9.594c-3.066-1.355-3.066-6.149 0-7.504l21.706-9.594c.929-.411 1.666-1.224 2.038-2.25l8.688-23.969c1.227-3.386 5.568-3.386 6.796 0z"/></g></g></g></svg>