<svg id="Capa_1" enable-background="new 0 0 512 512" height="512" viewBox="0 0 512 512" width="512" xmlns="http://www.w3.org/2000/svg"><g><g><path d="m485.787 494.122h-213.662c-8.906 0-16.125-7.219-16.125-16.125v-305.51c0-8.906 7.219-16.125 16.125-16.125h213.662c8.906 0 16.125 7.219 16.125 16.125v305.51c0 8.906-7.219 16.125-16.125 16.125z" fill="#ffe266"/><path d="m239.875 494.122h-213.663c-8.906 0-16.125-7.219-16.125-16.125v-305.51c0-8.906 7.219-16.125 16.125-16.125h213.662c8.906 0 16.125 7.219 16.125 16.125v305.51c.001 8.906-7.219 16.125-16.124 16.125z" fill="#ffe266"/><path d="m240.457 458.589c-58.932-12.653-119.068-13.125-184.647.251-7.954 1.622-15.404-4.428-15.404-12.546v-294.261c0-6.262 4.524-11.623 10.702-12.65 64.73-10.765 129.46-10.765 194.19 0 6.178 1.027 10.702 6.388 10.702 12.65v294.04c0 8.177-7.548 14.233-15.543 12.516z" fill="#fff"/><path d="m456.051 458.589c-58.932-12.653-119.068-13.125-184.647.251-7.954 1.623-15.404-4.428-15.404-12.546v-294.261c0-6.262 4.524-11.623 10.702-12.65 64.73-10.765 129.46-10.765 194.19 0 6.177 1.027 10.702 6.388 10.702 12.65v294.04c0 8.177-7.548 14.233-15.543 12.516z" fill="#fff"/><path d="m239.875 136.168h-11.723v279.221c0 8.706-7.058 15.764-15.764 15.764h-186.536c-8.706 0-15.764-7.058-15.764-15.764v62.608c0 8.906 7.219 16.125 16.125 16.125h213.662c8.906 0 16.125-7.22 16.125-16.125v-305.51c0-8.905-7.22-36.319-16.125-36.319z" fill="#efaa66"/><path d="m228.152 136.788v278.601c0 8.706-7.058 15.764-15.764 15.764h-171.982v15.142c0 8.118 7.451 14.168 15.404 12.546 65.579-13.375 125.715-12.904 184.647-.251 7.995 1.716 15.542-4.339 15.542-12.516v-273.587c0-7.04-4.513-25.634-10.802-33.121-5.681-.944-11.363-1.801-17.045-2.578z" fill="#ffbffc"/><path d="m477.305 149.624c-13.841-11.455-38.241-13.456-38.241-13.456l1.654 281.063c0 7.678-6.224 13.902-13.902 13.902h-162.108c-3.299 0-6.325-1.155-8.709-3.074v49.939c0 8.906 7.219 16.125 16.125 16.125h213.662c8.906 0 16.125-7.22 16.125-16.125v-305.51c.001-8.906-10.765-11.409-24.606-22.864z" fill="#efaa66"/><path d="m271.404 458.84c65.579-13.375 125.715-12.904 184.647-.251 7.995 1.716 15.542-4.339 15.542-12.516v-294.04c0-2.876-.962-5.554-2.592-7.717-8.35-4.193-17.786-6.316-23.795-7.324-2.048-.286-4.095-.561-6.143-.825l1.655 281.062c0 7.678-6.224 13.902-13.902 13.902h-162.108c-3.299 0-6.325-1.154-8.709-3.074v18.236c.001 8.119 7.451 14.169 15.405 12.547z" fill="#ffbffc"/></g><path d="m485.787 146.275h-9.046c-2.096-6.599-7.698-11.673-14.856-12.864-65.087-10.823-131.09-10.823-196.176 0-3.761.625-7.085 2.334-9.709 4.76-2.624-2.426-5.948-4.135-9.709-4.76-65.087-10.823-131.09-10.823-196.176 0-7.157 1.19-12.759 6.265-14.856 12.864h-9.047c-14.453 0-26.212 11.759-26.212 26.212v305.51c0 14.454 11.759 26.212 26.212 26.212h213.663c6.078 0 11.674-2.085 16.125-5.569 4.451 3.484 10.047 5.569 16.125 5.569h213.662c14.454 0 26.213-11.758 26.213-26.212v-305.51c0-14.453-11.759-26.212-26.213-26.212zm-439.328 161.552c70.844-15.911 137.514-15.938 203.489-.079v27.403c-66.063-15.438-132.791-15.401-203.489.114zm215.594 0c70.844-15.911 137.514-15.938 203.489-.079v27.403c-66.063-15.438-132.791-15.401-203.489.114zm203.488-12.524c-66.063-15.438-132.791-15.4-203.489.114v-29.22c70.846-15.913 137.515-15.938 203.489-.079zm-215.594 0c-66.063-15.437-132.791-15.4-203.489.114v-29.22c70.846-15.913 137.515-15.938 203.489-.079zm-203.488 52.372c70.846-15.914 137.515-15.938 203.489-.079v28.66c-66.063-15.438-132.791-15.402-203.489.114zm215.594 0c70.846-15.914 137.515-15.938 203.489-.079v28.66c-66.063-15.438-132.791-15.402-203.489.114zm203.488-94.001c-66.063-15.437-132.791-15.402-203.489.114v-28.686c70.844-15.911 137.514-15.938 203.489-.079zm-215.594 0c-66.063-15.437-132.791-15.402-203.489.114v-28.686c70.844-15.911 137.514-15.938 203.489-.079zm-203.488 135.106c70.846-15.914 137.515-15.938 203.489-.079v26.877c-66.063-15.437-132.791-15.4-203.489.114zm215.594 0c70.846-15.914 137.515-15.938 203.489-.079v26.877c-66.063-15.437-132.791-15.4-203.489.114zm203.488-176.2c-66.063-15.437-132.791-15.4-203.489.114v-28.324c70.844-15.911 137.514-15.938 203.489-.079zm-215.594 0c-66.063-15.437-132.791-15.4-203.489.114v-28.324c70.844-15.911 137.514-15.938 203.489-.079zm-203.488 215.522c70.844-15.912 137.514-15.938 203.489-.079v18.049c0 2.047-.912 3.958-2.502 5.242-1.605 1.298-3.687 1.792-5.718 1.356-60.958-13.087-122.167-13.011-187.127.238-2.012.41-4.078-.096-5.664-1.392-1.575-1.287-2.478-3.19-2.478-5.224zm218.071 23.416c-1.575-1.286-2.478-3.19-2.478-5.224v-.222-17.971c70.844-15.912 137.514-15.938 203.489-.079v18.049c0 2.047-.912 3.958-2.502 5.242-1.605 1.298-3.688 1.792-5.718 1.356-60.958-13.087-122.168-13.011-187.128.238-2.009.417-4.076-.093-5.663-1.389zm3.165-306.165c31.884-5.303 63.994-7.954 96.102-7.954 32.109 0 64.218 2.651 96.102 7.954 3.269.544 5.642 3.354 5.642 6.68v19.813c-66.063-15.437-132.791-15.401-203.489.114v-19.928c.001-3.326 2.373-6.135 5.643-6.679zm-215.594 0c31.884-5.303 63.994-7.954 96.102-7.954 32.109 0 64.218 2.651 96.102 7.954 3.269.544 5.642 3.354 5.642 6.68v19.813c-66.063-15.437-132.791-15.401-203.489.114v-19.928c.001-3.326 2.373-6.135 5.643-6.679zm187.774 338.681h-213.663c-3.329 0-6.037-2.708-6.037-6.037v-305.51c0-3.329 2.708-6.037 6.037-6.037h8.141v279.844c0 5.684 2.524 11.005 6.926 14.599 3.412 2.787 7.615 4.264 11.93 4.264 1.266 0 2.543-.127 3.811-.386 63.288-12.906 122.876-12.994 182.166-.264 2.248.483 4.521.546 6.726.225v13.266c0 3.328-2.708 6.036-6.037 6.036zm251.95-6.037c0 3.329-2.708 6.037-6.037 6.037h-213.663c-3.329 0-6.037-2.708-6.037-6.037v-13.051c.897.13 1.802.211 2.715.211 1.266 0 2.543-.127 3.811-.386 63.289-12.906 122.876-12.994 182.167-.264 5.62 1.208 11.404-.168 15.867-3.776 4.448-3.594 6.999-8.937 6.999-14.658v-279.622h8.141c3.329 0 6.037 2.708 6.037 6.037z" fill="#440a29"/><g><path d="m100.873 71.88c0 10.333-8.377 18.71-18.71 18.71s-18.71-8.377-18.71-18.71 8.376-18.71 18.71-18.71 18.71 8.377 18.71 18.71z" fill="#ffe266"/><circle cx="363.797" cy="23.339" fill="#ffe266" r="7.923"/><g fill="#fef2a8"><path d="m207.7 9.684 6.356 17.872c.272.765.811 1.371 1.491 1.678l15.878 7.154c2.243 1.011 2.243 4.585 0 5.595l-15.878 7.154c-.68.306-1.219.913-1.491 1.678l-6.356 17.872c-.898 2.525-4.074 2.525-4.971 0l-6.356-17.872c-.272-.765-.811-1.372-1.491-1.678l-15.878-7.154c-2.243-1.011-2.243-4.585 0-5.595l15.878-7.154c.68-.306 1.219-.913 1.491-1.678l6.356-17.872c.897-2.525 4.073-2.525 4.971 0z"/><path d="m449.657 30.81 8.733 24.093c.374 1.032 1.114 1.849 2.048 2.262l21.818 9.644c3.082 1.362 3.082 6.181 0 7.543l-21.818 9.644c-.934.413-1.674 1.23-2.048 2.262l-8.733 24.093c-1.234 3.404-5.597 3.404-6.831 0l-8.734-24.093c-.374-1.031-1.114-1.849-2.048-2.262l-21.818-9.644c-3.082-1.363-3.082-6.181 0-7.543l21.818-9.644c.934-.413 1.674-1.23 2.048-2.262l8.734-24.093c1.234-3.404 5.597-3.404 6.831 0z"/></g></g></g></svg>