<svg id="Capa_1" enable-background="new 0 0 512 512" height="512" viewBox="0 0 512 512" width="512" xmlns="http://www.w3.org/2000/svg"><g><g><path d="m111.07 400.248h348.513v71.14h-348.513z" fill="#b2e7f1"/><path d="m419.216 501.98h-334.107c-10.313 0-18.673-8.36-18.673-18.673s8.36-18.673 18.673-18.673h334.107c16.87 0 30.594-13.724 30.594-30.593 0-16.87-13.724-30.594-30.594-30.594h-334.107c-10.313 0-18.673-8.36-18.673-18.673s8.36-18.673 18.673-18.673h334.107c37.462 0 67.94 30.478 67.94 67.94s-30.478 67.939-67.94 67.939z" fill="#ffa585"/><path d="m85.109 403.447h18.33v-10.264h-21.522c-7.654 0-13.995-4.864-15.242-11.248-.142.928-.238 1.871-.238 2.84-.001 10.312 8.359 18.672 18.672 18.672z" fill="#cb2cff"/><path d="m419.216 366.101h-60.311c31.057 0 56.325 22.102 56.325 49.267 0 27.166-25.267 49.266-56.325 49.266h-273.797c-10.312 0-18.672 8.361-18.672 18.673 0 10.313 8.36 18.673 18.673 18.673h334.107c37.462 0 67.94-30.477 67.94-67.939s-30.478-67.94-67.94-67.94z" fill="#a7adf1"/><path d="m481.808 407.621c-2.564-6.053-6.007-11.71-10.186-16.772-12.471-15.105-31.334-24.749-52.406-24.749h-60.311c26.358 0 48.537 15.922 54.648 37.346h5.663c16.87 0 30.594 13.724 30.594 30.594 0 16.869-13.724 30.593-30.594 30.593h-334.107c-10.313 0-18.673 8.36-18.673 18.673s8.36 18.673 18.673 18.673h334.107c17.56 0 33.586-6.697 45.657-17.67 21.006-18.357 28.266-51.181 16.935-76.688z" fill="#ef7c85"/><path d="m111.07 264.369h348.513v71.14h-348.513z" fill="#fff"/><path d="m419.216 366.101h-334.107c-10.313 0-18.673-8.36-18.673-18.673s8.36-18.673 18.673-18.673h334.107c16.87 0 30.594-13.724 30.594-30.593 0-16.87-13.724-30.594-30.594-30.594h-334.107c-10.313 0-18.673-8.36-18.673-18.673s8.36-18.673 18.673-18.673h334.107c37.462 0 67.94 30.478 67.94 67.94s-30.478 67.939-67.94 67.939z" fill="#a183e2"/><path d="m85.109 267.567h18.33v-10.264h-21.522c-7.654 0-13.995-4.864-15.242-11.248-.142.928-.238 1.871-.238 2.839-.001 10.313 8.359 18.673 18.672 18.673z" fill="#cb2cff"/><path d="m419.216 230.222h-60.311c31.057 0 56.325 22.102 56.325 49.267 0 27.166-25.267 49.266-56.325 49.266h-273.797c-10.312.001-18.672 8.361-18.672 18.673 0 10.313 8.36 18.673 18.673 18.673h334.107c37.462 0 67.94-30.477 67.94-67.939s-30.478-67.94-67.94-67.94z" fill="#ffbffc"/><path d="m481.808 271.742c-2.564-6.053-6.007-11.71-10.186-16.771-12.471-15.105-31.334-24.749-52.406-24.749h-60.311c26.358 0 48.537 15.922 54.648 37.346h5.663c16.87 0 30.594 13.724 30.594 30.594 0 16.869-13.724 30.593-30.594 30.593h-334.107c-10.313 0-18.673 8.36-18.673 18.673s8.36 18.673 18.673 18.673h334.107c16.39 0 31.442-5.833 43.191-15.533 22.733-17.966 31.248-52.283 19.401-78.826z" fill="#9762e2"/><path d="m58.513 128.489h348.513v71.14h-348.513z" fill="#fef2a8"/><path d="m366.659 230.222h-334.107c-10.313 0-18.673-8.36-18.673-18.673s8.36-18.673 18.673-18.673h334.107c16.87 0 30.594-13.724 30.594-30.593 0-16.87-13.724-30.594-30.594-30.594h-334.107c-10.313 0-18.673-8.36-18.673-18.673s8.36-18.673 18.673-18.673h334.107c37.462 0 67.94 30.478 67.94 67.94 0 37.461-30.478 67.939-67.94 67.939z" fill="#ef8bbd"/><path d="m32.552 131.688h18.33v-10.264h-21.522c-7.654 0-13.995-4.864-15.242-11.248-.142.928-.238 1.871-.238 2.84-.001 10.312 8.359 18.672 18.672 18.672z" fill="#cb2cff"/><path d="m366.659 94.342h-60.311c31.057 0 56.325 22.102 56.325 49.267 0 27.166-25.267 49.266-56.325 49.266h-273.797c-10.312.001-18.672 8.361-18.672 18.673 0 10.313 8.36 18.673 18.673 18.673h334.107c37.462 0 67.94-30.477 67.94-67.939s-30.478-67.94-67.94-67.94z" fill="#eeb6a8"/><path d="m430.469 138.946c-1.145-3.12-2.512-6.134-4.083-9.021-11.519-21.177-33.973-35.583-59.728-35.583h-60.311c26.358 0 48.537 15.922 54.648 37.346h5.663c16.87 0 30.594 13.724 30.594 30.594 0 16.869-13.724 30.594-30.594 30.594h-334.106c-10.313 0-18.673 8.36-18.673 18.673 0 10.312 8.36 18.673 18.673 18.673h334.107c18.731 0 35.716-7.619 48.018-19.921 4.613-4.613 8.568-9.885 11.71-15.661 9.258-16.658 10.739-37.989 4.082-55.694z" fill="#e068bd"/></g><g fill="#440a29"><path d="m457.382 366.101c23.727-13.382 39.793-38.813 39.793-67.94 0-42.987-34.973-77.96-77.96-77.96h-.44c15.854-14.28 25.842-34.953 25.842-57.919 0-42.987-34.973-77.96-77.959-77.96h-334.106c-15.821 0-28.693 12.872-28.693 28.693s12.872 28.693 28.693 28.693h15.947v41.148h-15.947c-15.821 0-28.693 12.872-28.693 28.693s12.872 28.693 28.693 28.693h25.201c-.866 2.732-1.336 5.639-1.336 8.653 0 15.822 12.872 28.693 28.693 28.693h15.948v41.148h-15.949c-15.821 0-28.693 12.871-28.693 28.693 0 7.127 2.618 13.65 6.935 18.672-4.317 5.023-6.935 11.546-6.935 18.673 0 15.821 12.872 28.693 28.693 28.693h15.948v41.148h-15.948c-15.821 0-28.693 12.871-28.693 28.693s12.872 28.692 28.693 28.692h334.107c42.987 0 77.96-34.972 77.96-77.959 0-29.127-16.067-54.558-39.794-67.94zm-388.843-197.807h143.793c3.32 0 6.012-2.692 6.012-6.012s-2.692-6.012-6.012-6.012h-143.793v-14.562h298.12c11.344 0 20.574 9.23 20.574 20.575s-9.229 20.574-20.574 20.574h-298.12zm-44.64 43.255c0-4.772 3.882-8.653 8.653-8.653h334.107c22.394 0 40.613-18.219 40.613-40.613 0-22.395-18.219-40.614-40.613-40.614h-334.107c-4.772 0-8.653-3.882-8.653-8.653 0-4.772 3.882-8.654 8.653-8.654h334.107c31.937 0 57.92 25.983 57.92 57.921 0 31.937-25.983 57.919-57.92 57.919h-281.55-52.557c-4.771 0-8.653-3.882-8.653-8.653zm97.197 66.038h298.12c9.253 0 17.095 6.142 19.673 14.562h-93.8c-3.32 0-6.012 2.691-6.012 6.012s2.692 6.012 6.012 6.012h93.8c-2.578 8.42-10.42 14.562-19.673 14.562h-298.12zm-35.987 61.188h334.107c22.394 0 40.613-18.219 40.613-40.613 0-22.395-18.219-40.613-40.613-40.613h-334.107c-4.772 0-8.653-3.882-8.653-8.654s3.882-8.653 8.653-8.653h281.55 52.557c31.937 0 57.92 25.983 57.92 57.92 0 31.934-25.978 57.915-57.911 57.919-.003 0-.006 0-.01 0h-334.106c-.002 0-.004 0-.006 0-4.769-.003-8.647-3.884-8.647-8.653 0-4.771 3.881-8.653 8.653-8.653zm35.987 101.278h68.78c3.32 0 6.012-2.692 6.012-6.012s-2.692-6.012-6.012-6.012h-68.78v-14.562h298.12c11.344 0 20.574 9.23 20.574 20.575s-9.23 20.574-20.574 20.574h-298.12zm298.12 51.908h-334.107c-4.772 0-8.653-3.882-8.653-8.653 0-4.772 3.882-8.653 8.653-8.653h334.107c22.394 0 40.613-18.219 40.613-40.613 0-22.395-18.219-40.614-40.613-40.614h-334.107c-4.772 0-8.653-3.882-8.653-8.653 0-4.769 3.878-8.65 8.647-8.653h.006 334.107.01c31.933.005 57.911 25.987 57.911 57.921-.001 31.935-25.984 57.918-57.921 57.918z"/><path d="m303.844 292.149h-79.605c-3.32 0-6.012 2.692-6.012 6.012s2.692 6.012 6.012 6.012h79.605c3.32 0 6.012-2.692 6.012-6.012-.001-3.32-2.692-6.012-6.012-6.012z"/><path d="m394.285 428.029h-161.516c-3.32 0-6.012 2.692-6.012 6.012s2.692 6.012 6.012 6.012h161.515c3.32 0 6.012-2.692 6.012-6.012s-2.691-6.012-6.011-6.012z"/></g><g><path d="m502.895 156.19c0 4.346-3.523 7.87-7.87 7.87-4.346 0-7.87-3.523-7.87-7.87 0-4.346 3.523-7.87 7.87-7.87s7.87 3.523 7.87 7.87z" fill="#a183e2"/><path d="m410.024 18.602c0 4.346-3.523 7.87-7.87 7.87-4.346 0-7.87-3.524-7.87-7.87s3.523-7.87 7.87-7.87 7.87 3.523 7.87 7.87z" fill="#a183e2"/><g fill="#cab4ef"><path d="m324.019 1.881 6.313 17.751c.27.76.805 1.362 1.48 1.667l15.771 7.105c2.228 1.004 2.228 4.554 0 5.558l-15.771 7.105c-.675.304-1.21.906-1.48 1.667l-6.313 17.751c-.892 2.508-4.046 2.508-4.938 0l-6.313-17.751c-.27-.76-.805-1.362-1.481-1.667l-15.771-7.105c-2.228-1.004-2.228-4.554 0-5.558l15.771-7.105c.675-.304 1.21-.907 1.481-1.667l6.313-17.751c.891-2.508 4.046-2.508 4.938 0z"/><path d="m473.464 29.007 8.674 23.93c.371 1.025 1.107 1.837 2.035 2.247l21.671 9.579c3.062 1.353 3.062 6.139 0 7.492l-21.671 9.579c-.928.41-1.663 1.222-2.035 2.247l-8.674 23.93c-1.226 3.381-5.56 3.381-6.785 0l-8.675-23.93c-.371-1.024-1.107-1.836-2.035-2.247l-21.671-9.579c-3.062-1.353-3.062-6.139 0-7.492l21.671-9.579c.928-.41 1.663-1.222 2.035-2.247l8.675-23.93c1.225-3.381 5.559-3.381 6.785 0z"/></g></g></g></svg>